PathFileType	4	(X/Y/Z)	outputs\dynamic_markers.trc
DataRate	CameraRate	NumFrames	NumMarkers	Units	OrigDataRate	OrigDataStartFrame	OrigNumFrames
360.000000	360.000000	4	48	m	360.000000	319	639
Frame#	Time	C7			CLAV			LANK			LASI			LBAK			LBHD			LELB			LFHD			LFIN			LFRM			LHEE			LIC			LKNE			LMANK			LMELB			LMKNE			LPSI			LSHO			LTHI			LTIB			LTOE			LUPA			LWRA			LWRB			RANK			RASI			RBAK			RBHD			RELB			RFHD			RFIN			RFRM			RHEE			RIC			RKNE			RMANK			RMELB			RMKNE			RPSI			RSHO			RTHI			RTIB			RTOE			RUPA			RWRA			RWRB			STRN			T10			
		X1	Y1	Z1	X2	Y2	Z2	X3	Y3	Z3	X4	Y4	Z4	X5	Y5	Z5	X6	Y6	Z6	X7	Y7	Z7	X8	Y8	Z8	X9	Y9	Z9	X10	Y10	Z10	X11	Y11	Z11	X12	Y12	Z12	X13	Y13	Z13	X14	Y14	Z14	X15	Y15	Z15	X16	Y16	Z16	X17	Y17	Z17	X18	Y18	Z18	X19	Y19	Z19	X20	Y20	Z20	X21	Y21	Z21	X22	Y22	Z22	X23	Y23	Z23	X24	Y24	Z24	X25	Y25	Z25	X26	Y26	Z26	X27	Y27	Z27	X28	Y28	Z28	X29	Y29	Z29	X30	Y30	Z30	X31	Y31	Z31	X32	Y32	Z32	X33	Y33	Z33	X34	Y34	Z34	X35	Y35	Z35	X36	Y36	Z36	X37	Y37	Z37	X38	Y38	Z38	X39	Y39	Z39	X40	Y40	Z40	X41	Y41	Z41	X42	Y42	Z42	X43	Y43	Z43	X44	Y44	Z44	X45	Y45	Z45	X46	Y46	Z46	X47	Y47	Z47	X48	Y48	Z48	

320	0.8861111111111112	0.1884852349758148	1.618013739585876	0.01608007773756981	0.1263172775506973	1.530477523803711	0.1519176959991455	0.07201395183801651	0.6959118247032166	0.606730580329895	0.4006038308143616	1.188182711601257	0.1916270703077316	0.3809929490089417	1.476020455360413	0.007846403867006302	0.1691289842128754	1.761958837509155	0.02516802959144115	0.4166573584079742	1.361614108085632	0.4418736696243286	0.228212833404541	1.817554235458374	0.142898216843605	0.06191540509462357	1.475127935409546	0.4968490600585938	0.2661215364933014	1.408828973770142	0.4708564877510071	0.1107225492596626	0.7209529876708984	0.5224915146827698	0.4832453727722168	1.244674205780029	0.1340423673391342	0.1566796600818634	1.200990438461304	0.4813838303089142	0.0009444780880585313	0.7260252237319946	0.5228975415229797	0.3918309807777405	1.291666507720947	0.3809517621994019	0.05372211709618568	1.163891911506653	0.3962047696113586	0.463979184627533	1.131618618965149	-0.005384468473494053	0.3008480966091156	1.640268206596375	0.197770744562149	0.2431363612413406	1.191388726234436	0.4357829093933105	0.153183788061142	1.095468759536743	0.5131771564483643	-0.1169112175703049	0.7070882320404053	0.628372848033905	0.3754717409610748	1.511915683746338	0.328516811132431	0.1347125470638275	1.426657915115356	0.4351063072681427	0.1195704638957977	1.37320339679718	0.503701388835907	0.03351898863911629	0.08672730624675751	0.05043881759047508	0.1829119771718979	1.098761558532715	0.02118086628615856	0.2146487981081009	1.421258807182312	-0.113334059715271	0.03430674597620964	1.759497404098511	0.09151597321033478	-0.1166226118803024	1.18706488609314	0.009603247046470642	0.08742272108793259	1.811550855636597	0.2124391198158264	-0.08425769954919815	1.412829756736755	0.2701581120491028	-0.1179257705807686	1.290998101234436	0.1285615712404251	0.09390792995691299	0.07089634984731674	-0.00311993807554245	0.2096059769392014	1.126864194869995	-0.07574860751628876	0.07260289043188095	0.5827155709266663	0.1685515940189362	0.1329448670148849	0.04467393457889557	0.06761351227760315	-0.03049329482018948	1.158675789833069	0.03768223151564598	0.1962535232305527	0.5644255876541138	0.2194633781909943	0.3758493065834045	1.115879058837891	-0.06506659835577011	0.003265069564804435	1.555153131484985	-0.01412620209157467	0.1097772568464279	0.737002432346344	0.08013039827346802	0.0535784475505352	0.4553540050983429	0.09465528279542923	0.06119364500045776	0.06453630328178406	0.2788869142532349	-0.07747334986925125	1.376033544540405	-0.0166719239205122	-0.0497206524014473	1.359249353408813	0.2491306215524673	-0.1333577781915665	1.331046223640442	0.2572578489780426	0.1866496205329895	1.339707612991333	0.1664165705442429	0.3763089776039124	1.2920241355896	-0.06561152637004852	
321	0.888888888888889	0.1886463165283203	1.617253065109253	0.01629214361310005	0.1265083253383636	1.529642343521118	0.1519694328308105	0.07434533536434174	0.6912670135498047	0.6090689897537231	0.4018138647079468	1.187391757965088	0.1914724260568619	0.3814224898815155	1.475812673568726	0.007979560643434525	0.1693954467773438	1.761052131652832	0.02533709816634655	0.4170847535133362	1.360964775085449	0.4420037865638733	0.2281817495822906	1.816744327545166	0.1429377198219299	0.06167139858007431	1.47282886505127	0.4960299134254456	0.2663102746009827	1.407453775405884	0.4705407619476318	0.1127143874764442	0.716221809387207	0.5246633887290955	0.4842261373996735	1.244458913803101	0.1339234113693237	0.1581418216228485	1.196359157562256	0.4824840426445007	0.002831837860867381	0.7211788296699524	0.5255341529846191	0.3927335739135742	1.291072130203247	0.380939781665802	0.05501176416873932	1.159059762954712	0.3976555466651917	0.465201735496521	1.131698369979858	-0.005749110132455826	0.3008684813976288	1.639510631561279	0.198060005903244	0.2443290054798126	1.187666654586792	0.4364728927612305	0.155008003115654	1.090562582015991	0.5143148899078369	-0.1143987625837326	0.7023884654045105	0.6317005753517151	0.375637412071228	1.511238694190979	0.328855574131012	0.1348970681428909	1.424689292907715	0.4344370365142822	0.1198046952486038	1.371132731437683	0.5028829574584961	0.03373101353645325	0.08677904307842255	0.05050123482942581	0.1842651069164276	1.09797477722168	0.02095790207386017	0.2152097374200821	1.420796155929565	-0.1132039576768875	0.03434233367443085	1.758509516716003	0.0913933664560318	-0.1152865663170815	1.185720920562744	0.01005268096923828	0.08737537264823914	1.810702562332153	0.2124664187431335	-0.08250558376312256	1.411022186279297	0.2710691392421722	-0.1162039861083031	1.289338946342468	0.1293603330850601	0.09410453587770462	0.07095160335302353	-0.003039040602743626	0.2107406705617905	1.126323223114014	-0.0758541002869606	0.07339971512556076	0.5827345848083496	0.1687780916690826	0.1330568641424179	0.04460424929857254	0.0677238404750824	-0.02905352041125298	1.157490491867065	0.03797006607055664	0.1970303654670715	0.5642362833023071	0.2197863757610321	0.3769970536231995	1.115726113319397	-0.0653674453496933	0.003614343237131834	1.554071545600891	-0.01405180804431438	0.1110449582338333	0.7367500066757202	0.08006003499031067	0.05429559946060181	0.4554249942302704	0.09486435353755951	0.06118983775377274	0.06455287337303162	0.2788964807987213	-0.07670650631189346	1.374744892120361	-0.01634381711483002	-0.04764591157436371	1.357493162155151	0.2499071508646011	-0.1317314058542252	1.329150438308716	0.2580674588680267	0.1875512301921844	1.338775873184204	0.1669740378856659	0.3771675229072571	1.291800260543823	-0.06553017348051071	
322	0.8916666666666667	0.1889953017234802	1.61616325378418	0.01655791886150837	0.1268604695796967	1.528460502624512	0.1521106362342834	0.07797228544950485	0.6844806671142578	0.6127034425735474	0.4037019610404968	1.186196565628052	0.1911163777112961	0.3820988833904266	1.47536301612854	0.00815642811357975	0.1696503162384033	1.759623050689697	0.02559894882142544	0.4177956879138947	1.359999537467957	0.4422946870326996	0.2281668335199356	1.81549334526062	0.1430115550756454	0.06138677522540092	1.469312429428101	0.4947128593921661	0.266472727060318	1.405542492866516	0.4702361524105072	0.1156239211559296	0.7091343998908997	0.5277538299560547	0.4856838583946228	1.244126796722412	0.133741095662117	0.1602694243192673	1.189265131950378	0.4840482473373413	0.005715752020478249	0.7138718366622925	0.5294994711875916	0.3942694962024689	1.290039539337158	0.3809987008571625	0.05707291141152382	1.151713013648987	0.3998166918754578	0.4669487774372101	1.131784796714783	-0.006408872082829475	0.300908625125885	1.638213634490967	0.1985426247119904	0.2462931573390961	1.182124137878418	0.4376056790351868	0.1578275114297867	1.083305358886719	0.5160195827484131	-0.1105839684605598	0.6952505111694336	0.636719822883606	0.375835120677948	1.510170936584473	0.3292794525623322	0.1351254433393478	1.421828985214233	0.4332422912120819	0.1201649233698845	1.367990255355835	0.5016855597496033	0.03392082825303078	0.08689353615045547	0.05060354620218277	0.1863536685705185	1.096704959869385	0.02072121948003769	0.2160667479038239	1.419915914535522	-0.1130199283361435	0.03444279730319977	1.757131218910217	0.09131225943565369	-0.1132500767707825	1.183630466461182	0.01077669113874435	0.08734050393104553	1.80942165851593	0.2124529033899307	-0.07980122417211533	1.408278584480286	0.272382915019989	-0.1138731390237808	1.286806583404541	0.1303626298904419	0.0943845808506012	0.07102135568857193	-0.002939924597740173	0.2125777155160904	1.125525951385498	-0.07607623934745789	0.07470233738422394	0.5826882123947144	0.1691235899925232	0.1332144737243652	0.0445215031504631	0.06782607734203339	-0.02665598876774311	1.155734777450562	0.03810382261872292	0.198191374540329	0.5639005899429321	0.2203764170408249	0.378854364156723	1.115578532218933	-0.06596878916025162	0.004082998260855675	1.552414894104004	-0.01393057033419609	0.1129065528512001	0.736341655254364	0.07991228997707367	0.05537494271993637	0.4555130898952484	0.09518826752901077	0.06119373068213463	0.06457687169313431	0.2789224088191986	-0.07545657455921173	1.372834920883179	-0.01585514470934868	-0.04497983679175377	1.354877829551697	0.2509509325027466	-0.1289342641830444	1.32639217376709	0.259392112493515	0.1889153569936752	1.337356805801392	0.1678237318992615	0.3784119188785553	1.291372060775757	-0.06548402458429337	
323	0.8944444444444445	0.1892953366041183	1.615021109580994	0.01687642559409142	0.1274121403694153	1.52706253528595	0.1522102802991867	0.08159144222736359	0.6776711344718933	0.6162623763084412	0.4055204093456268	1.185027599334717	0.1907505393028259	0.3827947080135345	1.474891662597656	0.008334433659911156	0.169988602399826	1.758225083351135	0.02608628198504448	0.4184082746505737	1.35915470123291	0.4427619874477386	0.2281909584999084	1.814207077026367	0.1431144028902054	0.06106018275022507	1.465686678886414	0.4933486580848694	0.2666655778884888	1.403451323509216	0.4700494408607483	0.1185655891895294	0.701842188835144	0.5309733152389526	0.4871807396411896	1.243699789047241	0.1335821002721786	0.1624860465526581	1.18219518661499	0.4856987297534943	0.008581582456827164	0.706465482711792	0.5335251092910767	0.3958567380905151	1.288958311080933	0.3810069262981415	0.05935435369610786	1.144212365150452	0.4019286632537842	0.4687708616256714	1.1318678855896	-0.007090550847351551	0.3009666204452515	1.636988282203674	0.1991102695465088	0.2484548389911652	1.176377534866333	0.4386180937290192	0.1607555598020554	1.075939893722534	0.5177980661392212	-0.1067414283752441	0.6881285905838013	0.6418758630752563	0.3759949207305908	1.509105086326599	0.3296357691287994	0.1353761106729507	1.418892502784729	0.4320105612277985	0.1204294636845589	1.364773750305176	0.5003589391708374	0.03411107510328293	0.0870388001203537	0.0507330596446991	0.1884317696094513	1.095482587814331	0.02043303288519382	0.2169309854507446	1.418979406356812	-0.1128674745559692	0.03467599302530289	1.755621552467346	0.09139779210090637	-0.1112693399190903	1.181469917297363	0.0114532895386219	0.08724577724933624	1.808020114898682	0.2124657332897186	-0.07704184949398041	1.405347228050232	0.2737123668193817	-0.111588679254055	1.284372568130493	0.1314362436532974	0.09463076293468475	0.07107891142368317	-0.00285507389344275	0.2143663763999939	1.124837279319763	-0.07620880007743835	0.07601205259561539	0.5826866626739502	0.1694493293762207	0.133373811841011	0.0444377213716507	0.06792651861906052	-0.02443117275834084	1.153926491737366	0.03828024491667747	0.1993691921234131	0.5635316371917725	0.2209337800741196	0.3806028962135315	1.115364074707031	-0.06654320657253265	0.004517771303653717	1.550701022148132	-0.01375154498964548	0.1144925504922867	0.7359488010406494	0.07976790517568588	0.05644820258021355	0.4556193947792053	0.09540902078151703	0.06120642274618149	0.06460000574588776	0.2789473235607147	-0.07412153482437134	1.370799541473389	-0.01539984717965126	-0.04233212769031525	1.352369785308838	0.2519234120845795	-0.1261063367128372	1.32344114780426	0.2605591714382172	0.1902901232242584	1.335918664932251	0.168685719370842	0.3795283138751984	1.290786743164062	-0.0655534565448761	
